<svg width="64" height="64" viewBox="0 0 64 64" fill="none" xmlns="http://www.w3.org/2000/svg">
<path d="M52.6669 64H11.3331C5.06624 64 0 58.8039 0 52.3763V11.6237C0 5.19614 5.06624 0 11.3331 0H52.6669C58.9338 0 64 5.19614 64 11.6237V52.3763C64 58.8039 58.9338 64 52.6669 64Z" fill="#FF26BE"/>
<path d="M51.6532 61.2641H12.347C7.01448 61.2641 2.6676 56.8058 2.6676 51.3366V12.6635C2.6676 7.1943 7.01448 2.73596 12.347 2.73596H51.6276C56.9882 2.73596 61.307 7.1943 61.307 12.6635V51.3103C61.3326 56.8058 56.9857 61.2641 51.6532 61.2641Z" fill="#2E001F"/>
<path d="M25.3056 29.9481L32.7731 44.6622C32.9063 44.8802 32.8269 45.1007 32.6119 45.1007H27.9706C27.6762 45.1007 27.5431 45.0193 27.4099 44.7462C25.7024 41.136 23.9693 37.5257 22.1824 33.6424H22.1287C20.5287 37.3078 18.7674 41.1649 17.0624 44.7751C16.9293 44.9931 16.7962 45.0771 16.5811 45.0771H12.1856C11.9194 45.0771 11.8912 44.8591 12.0269 44.6937L19.3331 30.4155L12.2675 15.9744C12.1063 15.7565 12.2675 15.5911 12.4263 15.5911H17.0138C17.28 15.5911 17.3875 15.6462 17.4925 15.893C19.1719 19.5033 20.8794 23.2238 22.4794 26.8603H22.5331C24.0794 23.2501 25.7869 19.5033 27.4407 15.9193C27.5738 15.7014 27.6531 15.5648 27.9219 15.5648H32.2151C32.4275 15.5648 32.5095 15.7302 32.3763 15.9482L25.3056 29.9481ZM34.0813 34.4065C34.0813 28.034 38.2157 23.0558 44.7744 23.0558C45.3351 23.0558 45.6269 23.0558 46.1619 23.1109V15.8641C46.1619 15.6987 46.2951 15.5911 46.4282 15.5911H50.6419C50.8544 15.5911 50.9082 15.6725 50.9082 15.809V40.9181C50.9082 41.6559 50.9082 42.5853 51.0413 43.5988C51.0413 43.7643 50.9875 43.8168 50.8288 43.9008C48.5888 44.9957 46.2413 45.4867 44.0013 45.4867C38.2131 45.5103 34.0787 41.8475 34.0813 34.4065ZM46.1594 27.4065C45.7856 27.2411 45.2531 27.1334 44.6131 27.1334C41.2519 27.1334 38.9069 29.7853 38.9069 34.1912C38.9069 39.2245 41.3082 41.2489 44.3213 41.2489C44.9613 41.2489 45.6551 41.1675 46.1619 40.9469V27.4065H46.1594Z" fill="#FFD9F2"/>
</svg>
