<svg width="28" height="29" viewBox="0 0 28 29" fill="none" xmlns="http://www.w3.org/2000/svg">
<g clip-path="url(#clip0)">
<path d="M14.0292 18.1776L18.6083 12.5201C19.1333 11.884 19.075 10.9132 18.55 10.3107C17.9958 9.7081 17.15 9.77505 16.625 10.3776L13.0375 14.83L11.4042 12.8214C10.8792 12.1853 10.0333 12.1519 9.47917 12.7544C8.925 13.357 8.89583 14.3278 9.42083 14.9639L12.0458 18.211C12.5708 18.8471 13.5042 18.8471 14.0292 18.1776Z" fill="black"/>
<path d="M25.6083 10.4111H24.7042C23.8292 4.51929 19.3375 0.0334778 13.9708 0.0334778C8.60417 0.0334778 4.14167 4.51929 3.2375 10.4111H2.3625C1.1375 10.4111 0.116669 11.5828 0.116669 12.9888V17.3072C0.116669 18.0102 0.350001 18.6462 0.787501 19.1484C1.225 19.617 1.77917 19.8849 2.3625 19.8849H4.375C4.95834 19.8849 5.425 19.3492 5.425 18.6797V12.5201C5.425 7.13043 9.24584 2.74505 13.9417 2.74505C18.6375 2.74505 22.4583 7.13043 22.4583 12.5201V20.9226C22.4583 23.132 20.8833 24.9398 18.9583 24.9398H17.0333C16.8875 24.2368 16.3625 23.7346 15.6917 23.7346H12.2208C11.4333 23.7346 10.8208 24.4711 10.8208 25.3415V26.4462C10.8208 27.35 11.4625 28.053 12.2208 28.053H15.75C16.3917 28.053 16.9167 27.5174 17.0917 26.8479H19.0167C21.8458 26.8479 24.1792 24.2033 24.1792 20.9226V19.8514H25.6083C26.1917 19.8514 26.775 19.5836 27.1833 19.1149C27.6208 18.6128 27.8542 17.9767 27.8542 17.2737V12.9888C27.8542 11.5828 26.8625 10.4446 25.6083 10.4111Z" fill="black"/>
</g>
<defs>
<clipPath id="clip0">
<rect width="28" height="28.12" fill="white"/>
</clipPath>
</defs>
</svg>
