<svg width="96" height="84" viewBox="0 0 96 84" fill="none" xmlns="http://www.w3.org/2000/svg">
<path d="M48.1 54.3L63.8 37.4C65.6 35.5 65.4 32.6 63.6 30.8C61.7 29 58.8 29.2 57 31L44.7 44.3L39.1 38.3C37.3 36.4 34.4 36.3 32.5 38.1C30.6 39.9 30.5 42.8 32.3 44.7L41.3 54.4C43.1 56.3 46.3 56.3 48.1 54.3Z" fill="black"/>
<path d="M87.8 31.1H84.7C81.7 13.5 66.3 0.100006 47.9 0.100006C29.5 0.100006 14.2 13.5 11.1 31.1H8.09999C3.89999 31.1 0.399994 34.6 0.399994 38.8V51.7C0.399994 53.8 1.19999 55.7 2.69999 57.2C4.19999 58.6 6.09999 59.4 8.09999 59.4H15C17 59.4 18.6 57.8 18.6 55.8V37.4C18.6 21.3 31.7 8.20001 47.8 8.20001C63.9 8.20001 77 21.3 77 37.4V62.5C77 69.1 71.6 74.5 65 74.5H58.4C57.9 72.4 56.1 70.9 53.8 70.9H41.9C39.2 70.9 37.1 73.1 37.1 75.7V79C37.1 81.7 39.3 83.8 41.9 83.8H54C56.2 83.8 58 82.2 58.6 80.2H65.2C74.9 80.2 82.9 72.3 82.9 62.5V59.3H87.8C89.8 59.3 91.8 58.5 93.2 57.1C94.7 55.6 95.5 53.7 95.5 51.6V38.8C95.5 34.6 92.1 31.2 87.8 31.1Z" fill="black"/>
</svg>
