<svg
								xmlns="http://www.w3.org/2000/svg"
								viewBox="0 0 256 326"
								preserveAspectRatio="xMinYMin meet"
								width="2em"
								height="2em"
							>
								<title>Django</title>
								<g fill="#2ba977">
									<path d="M 114.784 0 h 53.278 v 244.191 c -27.29 5.162 -47.38 7.193 -69.117 7.193 C 33.873 251.316 0 222.245 0 166.412 c 0 -53.795 35.93 -88.708 91.608 -88.708 c 8.64 0 15.222 0.68 23.176 2.717 V 0 Z m 1.867 124.427 c -6.24 -2.038 -11.382 -2.717 -17.965 -2.717 c -26.947 0 -42.512 16.437 -42.512 45.243 c 0 28.046 14.88 43.532 42.17 43.532 c 5.896 0 10.696 -0.332 18.307 -1.351 v -84.707 Z" />
									<path d="M 255.187 84.26 v 122.263 c 0 42.105 -3.154 62.353 -12.411 79.81 c -8.64 16.783 -20.022 27.366 -43.541 39.055 l -49.438 -23.297 c 23.519 -10.93 34.901 -20.588 42.17 -35.327 c 7.61 -15.072 10.01 -32.529 10.01 -78.445 V 84.261 h 53.21 Z M 196.608 0 h 53.278 v 54.135 h -53.278 V 0 Z" />
								</g>
							</svg>