<svg width="50" height="34" viewBox="0 0 50 34" fill="none" xmlns="http://www.w3.org/2000/svg">
<path fill-rule="evenodd" clip-rule="evenodd" d="M30.269 21.358V4.30199C30.269 1.95599 28.349 0.0369873 26.003 0.0369873H4.265C1.92 0.0369873 0 1.95599 0 4.30199V21.359C0 23.704 1.92 25.625 4.265 25.625H6.988V33.964L18.638 25.625H26.004C28.352 25.624 30.269 23.707 30.269 21.358ZM9.85 14.758H6.534V18.075H9.85V14.758ZM13.237 14.758V18.075H16.553V14.758H13.237ZM19.938 14.758V18.075H23.254V14.758H19.938ZM31.942 9.86099H46.614C46.914 9.86099 47.17 10.117 47.17 10.417V23.957C47.17 24.256 46.914 24.513 46.614 24.513H41.623V28.457L36.113 24.513H31.031C30.336 25.616 29.289 26.475 28.049 26.932L27.871 26.998C28.32 27.219 28.824 27.343 29.357 27.343H35.204L44.452 33.963V27.343H46.613C48.474 27.343 49.998 25.818 49.998 23.957V10.417C49.998 8.55499 48.474 7.03199 46.613 7.03199H31.942V9.86099ZM41.94 14.222C41.94 12.073 40.13 10.789 38.104 10.789C37.01 10.789 35.978 11.084 35.167 11.844C34.226 12.726 34.108 13.542 34.035 14.734H36.517L36.574 14.315C36.674 13.579 37.314 13.195 38.014 13.195C38.824 13.195 39.769 13.842 39.213 14.719C38.839 15.308 37.971 15.852 37.501 16.442C36.555 17.635 36.537 18.535 36.537 19.95H39.079C39.083 19.275 39.121 18.562 39.51 17.988C39.977 17.298 40.799 16.875 41.275 16.18C41.681 15.592 41.94 14.945 41.94 14.222ZM39.079 21.358H36.538V23.254H39.079V21.358ZM4.265 2.86699H26.004C26.787 2.86699 27.44 3.51799 27.44 4.30199V21.359C27.44 22.146 26.791 22.795 26.004 22.795H17.73L9.818 28.458V22.795H4.265C3.482 22.795 2.83 22.142 2.83 21.359V4.30199C2.83 3.51799 3.481 2.86699 4.265 2.86699Z" fill="black"/>
</svg>
