<svg xmlns="http://www.w3.org/2000/svg" xmlns:xlink="http://www.w3.org/1999/xlink" version="1.1" x="0px" y="0px" viewBox="0 0 50 62.5" enable-background="new 0 0 50 50" xml:space="preserve"><g><path fill-rule="evenodd" clip-rule="evenodd" d="M30.269,29.358V12.302c0-2.346-1.92-4.265-4.266-4.265H4.265   C1.92,8.037,0,9.956,0,12.302v17.057c0,2.345,1.92,4.266,4.265,4.266h2.723v8.339l11.65-8.339h7.366   C28.352,33.624,30.269,31.707,30.269,29.358 M9.85,22.758H6.534v3.317H9.85V22.758z M13.237,22.758v3.317h3.316v-3.317H13.237z    M19.938,22.758v3.317h3.316v-3.317H19.938z M31.942,17.861h14.672c0.3,0,0.556,0.256,0.556,0.556v13.54   c0,0.299-0.256,0.556-0.556,0.556h-4.991v3.944l-5.51-3.944h-5.082c-0.695,1.103-1.742,1.962-2.982,2.419l-0.178,0.066   c0.449,0.221,0.953,0.345,1.486,0.345h5.847l9.248,6.62v-6.62h2.161c1.861,0,3.385-1.525,3.385-3.386v-13.54   c0-1.862-1.524-3.385-3.385-3.385H31.942V17.861z M41.94,22.222c0-2.149-1.81-3.433-3.836-3.433c-1.094,0-2.126,0.295-2.937,1.055   c-0.941,0.882-1.059,1.698-1.132,2.89h2.482l0.057-0.419c0.1-0.736,0.74-1.12,1.44-1.12c0.81,0,1.755,0.647,1.199,1.524   c-0.374,0.589-1.242,1.133-1.712,1.723c-0.946,1.193-0.964,2.093-0.964,3.508h2.542c0.004-0.675,0.042-1.388,0.431-1.962   c0.467-0.69,1.289-1.113,1.765-1.808C41.681,23.592,41.94,22.945,41.94,22.222z M39.079,29.358h-2.541v1.896h2.541V29.358z    M4.265,10.867h21.739c0.783,0,1.436,0.651,1.436,1.435v17.057c0,0.787-0.649,1.436-1.436,1.436h-8.274l-7.912,5.663v-5.663H4.265   c-0.783,0-1.435-0.653-1.435-1.436V12.302C2.83,11.518,3.481,10.867,4.265,10.867z"/></g></svg>