<svg xmlns="http://www.w3.org/2000/svg" xmlns:xlink="http://www.w3.org/1999/xlink" version="1.1" x="0px" y="0px" viewBox="0 0 512 640" style="enable-background:new 0 0 512 512;" xml:space="preserve"><g><g><g><g><path d="M472.25,128.69H366.42c-2.63,0-5.21-1.07-7.07-2.93c-1.859-1.86-2.93-4.44-2.93-7.07      c0.01-16.32,6.229-31.78,17.52-43.53c11.261-11.73,26.351-18.52,42.48-19.11l0.63-0.01c17.45,0.49,33.76,7.11,45.93,18.63      c6.021,5.68,10.75,12.32,14.08,19.73c3.45,7.71,5.2,15.88,5.19,24.29c0,2.63-1.07,5.21-2.931,7.07      C477.46,127.62,474.89,128.69,472.25,128.69z M377.59,108.69h83.38c-1.91-7.27-5.96-14-11.74-19.49      c-8.51-8.07-20.029-12.74-32.41-13.15C398.13,76.82,382.01,90.24,377.59,108.69z"/></g><g><path d="M317.97,486l-11.35-0.03c-14.86-1.2-28.601-7.28-38.69-17.13c-4.43-4.29-8.11-9.33-10.95-14.98      c-2.95-5.869-4.94-12.3-5.9-19.109H88.2c-2.64,0-5.22-1.07-7.07-2.931c-1.86-1.859-2.93-4.439-2.93-7.069v-77.5      c0-5.51,4.48-10,10-10c5.51,0,10,4.49,10,10v67.5h162.21c2.63,0,5.21,1.069,7.069,2.93c1.86,1.86,2.931,4.44,2.931,7.07      c0.06,12.43,3.819,22.18,11.5,29.79c6.63,6.51,15.84,10.58,25.92,11.46h9.729c10.36-0.88,19.86-4.99,26.73-11.55      c7.899-7.61,11.87-17.351,12.13-29.761v-84.62c0-5.51,4.49-10,10-10s10,4.49,10,10v84.83c-0.2,17.42-6.71,33.061-18.34,44.03      c-5.29,5.03-11.48,9.061-18.391,11.98c-6.59,2.779-13.63,4.479-20.939,5.06L317.97,486L317.97,486z M88.2,307.28      c-5.52,0-10-4.48-10-10c0-5.511,4.48-10,10-10c5.51,0,10,4.489,10,10C98.2,302.8,93.71,307.28,88.2,307.28z M366.42,300.069      c-5.51,0-10-4.479-10-10c0-5.51,4.49-10,10-10s10,4.49,10,10C376.42,295.59,371.93,300.069,366.42,300.069z M88.2,257.319      c-5.52,0-10-4.49-10-10V93.78c0-10.09,3.94-19.58,11.09-26.71c7.14-7.13,16.63-11.06,26.73-11.07h301.73      c5.47,0,9.95,4.45,10,9.93c0.04,5.47-4.38,9.99-9.851,10.07c-0.02,0-0.04,0-0.13,0l-0.12,0.01c-0.13,0.01-0.3,0.02-0.52,0.02      c-22.47,0.77-40.74,19.9-40.71,42.66v121.37c0,0,0,0.01,0,0.02c0,5.51-4.48,9.99-10,9.99c-5.51,0-10-4.48-10-9.99V118.69      c0.01-15.89,5.95-31.05,16.72-42.69H116.02c-9.81,0.02-17.81,7.99-17.82,17.78v153.54C98.2,252.83,93.71,257.319,88.2,257.319z"/></g></g><g><path d="M88.12,486c-15.98,0-30.56-5.681-41.04-15.99c-5.52-5.4-9.83-12.01-12.79-19.65c-3.04-7.85-4.57-16.56-4.54-25.89     c0-2.63,1.06-5.21,2.93-7.07c1.86-1.859,4.44-2.93,7.07-2.93h220.66c2.63,0,5.21,1.07,7.069,2.93     c1.86,1.86,2.931,4.44,2.931,7.07c0.06,12.54,3.77,22.29,11.34,29.83c6.63,6.54,16.09,10.71,26.649,11.75     c5.48,0.54,9.511,5.44,8.971,10.93c-0.25,2.49-1.4,4.78-3.261,6.45c-2.09,1.88-4.92,2.79-7.67,2.521     c-7.3-0.721-14.26-2.511-20.689-5.32c-6.83-2.98-12.9-7.04-18.021-12.07c-9.04-8.8-14.8-20.59-16.669-34.09H50.57     c1.49,8.67,5.03,15.83,10.53,21.271c6.81,6.689,16.19,10.239,27.12,10.26h122.43c5.51,0,10,4.49,10,10s-4.49,10-10,10H88.12z      M260.649,486c-5.52,0-10-4.49-10-10s4.48-10,10-10c5.511,0,9.99,4.49,9.99,10S266.16,486,260.649,486z"/></g><g><path d="M57.75,159.06c-5.52,0-10-4.49-10-10V63.55c-0.01-5.06,0.99-9.98,2.97-14.63c1.92-4.51,4.65-8.53,8.13-11.96     c3.47-3.43,7.54-6.13,12.09-8.02c4.69-1.95,9.67-2.94,14.8-2.94H167c5.52,0,10,4.49,10,10c0,5.51-4.48,10-10,10H85.77     c-10.08,0.05-18,7.76-18.02,17.55v85.51C67.75,154.57,63.26,159.06,57.75,159.06z"/></g><g><path d="M327.75,186h-210c-5.52,0-10-4.49-10-10c0-5.51,4.48-10,10-10h210c5.51,0,10,4.49,10,10     C337.75,181.51,333.26,186,327.75,186z"/></g><g><path d="M327.75,216h-210c-5.52,0-10-4.49-10-10c0-5.51,4.48-10,10-10h210c5.51,0,10,4.49,10,10     C337.75,211.51,333.26,216,327.75,216z"/></g><g><path d="M327.75,246h-210c-5.52,0-10-4.49-10-10c0-5.51,4.48-10,10-10h210c5.51,0,10,4.49,10,10     C337.75,241.51,333.26,246,327.75,246z"/></g><g><path d="M327.75,276h-210c-5.52,0-10-4.49-10-10s4.48-10,10-10h210c5.51,0,10,4.49,10,10S333.26,276,327.75,276z"/></g><g><path d="M327.75,306h-210c-5.52,0-10-4.49-10-10s4.48-10,10-10h210c5.51,0,10,4.49,10,10S333.26,306,327.75,306z"/></g><g><path d="M327.75,336h-210c-5.52,0-10-4.49-10-10s4.48-10,10-10h210c5.51,0,10,4.49,10,10S333.26,336,327.75,336z"/></g><g><path d="M327.75,366h-90c-5.52,0-10-4.49-10-10s4.48-10,10-10h90c5.51,0,10,4.49,10,10S333.26,366,327.75,366z"/></g><rect x="387.747" y="196" width="20" height="20"/><rect x="387.747" y="226" width="20" height="20"/><rect x="387.747" y="256" width="20" height="20"/><rect x="387.747" y="286" width="20" height="20"/><rect x="387.747" y="316" width="20" height="20"/></g></g></svg>