<svg width="454" height="461" viewBox="0 0 454 461" fill="none" xmlns="http://www.w3.org/2000/svg">
<path d="M443.25 102.69H337.42C334.79 102.69 332.21 101.62 330.35 99.76C328.491 97.9 327.42 95.32 327.42 92.69C327.43 76.37 333.649 60.91 344.94 49.16C356.201 37.43 371.291 30.64 387.42 30.05L388.05 30.04C405.5 30.53 421.81 37.15 433.98 48.67C440.001 54.35 444.73 60.99 448.06 68.4C451.51 76.11 453.26 84.28 453.25 92.69C453.25 95.32 452.18 97.9 450.319 99.76C448.46 101.62 445.89 102.69 443.25 102.69ZM348.59 82.69H431.97C430.06 75.42 426.01 68.69 420.23 63.2C411.72 55.13 400.201 50.46 387.82 50.05C369.13 50.82 353.01 64.24 348.59 82.69Z" fill="black"/>
<path d="M288.97 460L277.62 459.97C262.76 458.77 249.019 452.69 238.93 442.84C234.5 438.55 230.82 433.51 227.98 427.86C225.03 421.991 223.04 415.56 222.08 408.751H59.2C56.56 408.751 53.98 407.681 52.13 405.82C50.27 403.961 49.2 401.381 49.2 398.751V321.251C49.2 315.741 53.68 311.251 59.2 311.251C64.71 311.251 69.2 315.741 69.2 321.251V388.751H231.41C234.04 388.751 236.62 389.82 238.479 391.681C240.339 393.541 241.41 396.121 241.41 398.751C241.47 411.181 245.229 420.931 252.91 428.541C259.54 435.051 268.75 439.121 278.83 440.001H288.559C298.919 439.121 308.419 435.011 315.289 428.451C323.188 420.841 327.159 411.1 327.419 398.69V314.07C327.419 308.56 331.909 304.07 337.419 304.07C342.929 304.07 347.419 308.56 347.419 314.07V398.9C347.219 416.32 340.709 431.961 329.079 442.93C323.789 447.96 317.599 451.991 310.688 454.91C304.098 457.689 297.058 459.389 289.749 459.97L288.97 460ZM59.2 281.28C53.68 281.28 49.2 276.8 49.2 271.28C49.2 265.769 53.68 261.28 59.2 261.28C64.71 261.28 69.2 265.769 69.2 271.28C69.2 276.8 64.71 281.28 59.2 281.28ZM337.42 274.069C331.91 274.069 327.42 269.59 327.42 264.069C327.42 258.559 331.91 254.069 337.42 254.069C342.93 254.069 347.42 258.559 347.42 264.069C347.42 269.59 342.93 274.069 337.42 274.069ZM59.2 231.319C53.68 231.319 49.2 226.829 49.2 221.319V67.78C49.2 57.69 53.14 48.2 60.29 41.07C67.43 33.94 76.92 30.01 87.02 30H388.75C394.22 30 398.7 34.45 398.75 39.93C398.79 45.4 394.37 49.92 388.899 50C388.879 50 388.859 50 388.769 50L388.649 50.01C388.519 50.02 388.349 50.03 388.129 50.03C365.659 50.8 347.389 69.93 347.419 92.69V214.06C347.419 214.06 347.419 214.07 347.419 214.08C347.419 219.59 342.939 224.07 337.419 224.07C331.909 224.07 327.419 219.59 327.419 214.08V92.69C327.429 76.8 333.369 61.64 344.139 50H87.02C77.21 50.02 69.21 57.99 69.2 67.78V221.32C69.2 226.83 64.71 231.319 59.2 231.319Z" fill="black"/>
<path d="M59.12 460C43.14 460 28.56 454.319 18.08 444.01C12.56 438.61 8.25001 432 5.29001 424.36C2.25001 416.51 0.720005 407.8 0.750005 398.47C0.750005 395.84 1.81001 393.26 3.68001 391.4C5.54001 389.541 8.12001 388.47 10.75 388.47H231.41C234.04 388.47 236.62 389.54 238.479 391.4C240.339 393.26 241.41 395.84 241.41 398.47C241.47 411.01 245.18 420.76 252.75 428.3C259.38 434.84 268.84 439.01 279.399 440.05C284.879 440.59 288.91 445.49 288.37 450.98C288.12 453.47 286.97 455.76 285.109 457.43C283.019 459.31 280.189 460.22 277.439 459.951C270.139 459.23 263.179 457.44 256.75 454.631C249.92 451.651 243.85 447.591 238.729 442.561C229.689 433.761 223.929 421.971 222.06 408.471H21.57C23.06 417.141 26.6 424.301 32.1 429.742C38.91 436.431 48.29 439.981 59.22 440.002H181.65C187.16 440.002 191.65 444.492 191.65 450.002C191.65 455.512 187.16 460.002 181.65 460.002H59.12V460ZM231.649 460C226.129 460 221.649 455.51 221.649 450C221.649 444.49 226.129 440 231.649 440C237.16 440 241.639 444.49 241.639 450C241.639 455.51 237.16 460 231.649 460Z" fill="black"/>
<path d="M28.75 133.06C23.23 133.06 18.75 128.57 18.75 123.06V37.55C18.74 32.49 19.74 27.57 21.72 22.92C23.64 18.41 26.37 14.39 29.85 10.96C33.32 7.53 37.39 4.83 41.94 2.94C46.63 0.99 51.61 0 56.74 0H138C143.52 0 148 4.49 148 10C148 15.51 143.52 20 138 20H56.77C46.69 20.05 38.77 27.76 38.75 37.55V123.06C38.75 128.57 34.26 133.06 28.75 133.06Z" fill="black"/>
<path d="M298.75 160H88.75C83.23 160 78.75 155.51 78.75 150C78.75 144.49 83.23 140 88.75 140H298.75C304.26 140 308.75 144.49 308.75 150C308.75 155.51 304.26 160 298.75 160Z" fill="black"/>
<path d="M298.75 190H88.75C83.23 190 78.75 185.51 78.75 180C78.75 174.49 83.23 170 88.75 170H298.75C304.26 170 308.75 174.49 308.75 180C308.75 185.51 304.26 190 298.75 190Z" fill="black"/>
<path d="M298.75 220H88.75C83.23 220 78.75 215.51 78.75 210C78.75 204.49 83.23 200 88.75 200H298.75C304.26 200 308.75 204.49 308.75 210C308.75 215.51 304.26 220 298.75 220Z" fill="black"/>
<path d="M298.75 250H88.75C83.23 250 78.75 245.51 78.75 240C78.75 234.49 83.23 230 88.75 230H298.75C304.26 230 308.75 234.49 308.75 240C308.75 245.51 304.26 250 298.75 250Z" fill="black"/>
<path d="M298.75 280H88.75C83.23 280 78.75 275.51 78.75 270C78.75 264.49 83.23 260 88.75 260H298.75C304.26 260 308.75 264.49 308.75 270C308.75 275.51 304.26 280 298.75 280Z" fill="black"/>
<path d="M298.75 310H88.75C83.23 310 78.75 305.51 78.75 300C78.75 294.49 83.23 290 88.75 290H298.75C304.26 290 308.75 294.49 308.75 300C308.75 305.51 304.26 310 298.75 310Z" fill="black"/>
<path d="M298.75 340H208.75C203.23 340 198.75 335.51 198.75 330C198.75 324.49 203.23 320 208.75 320H298.75C304.26 320 308.75 324.49 308.75 330C308.75 335.51 304.26 340 298.75 340Z" fill="black"/>
<path d="M378.747 170H358.747V190H378.747V170Z" fill="black"/>
<path d="M378.747 200H358.747V220H378.747V200Z" fill="black"/>
<path d="M378.747 230H358.747V250H378.747V230Z" fill="black"/>
<path d="M378.747 260H358.747V280H378.747V260Z" fill="black"/>
<path d="M378.747 290H358.747V310H378.747V290Z" fill="black"/>
</svg>
