<svg width="168" height="168" viewBox="0 0 168 168" fill="none" xmlns="http://www.w3.org/2000/svg">
<path d="M2 151.5C3.10457 151.5 4 150.605 4 149.5C4 148.395 3.10457 147.5 2 147.5C0.89543 147.5 0 148.395 0 149.5C0 150.605 0.89543 151.5 2 151.5Z" fill="white"/>
<path d="M11 147.5H8C7.46957 147.5 6.96086 147.711 6.58579 148.086C6.21071 148.461 6 148.97 6 149.5C6 150.03 6.21071 150.539 6.58579 150.914C6.96086 151.289 7.46957 151.5 8 151.5H11C11.5304 151.5 12.0391 151.289 12.4142 150.914C12.7893 150.539 13 150.03 13 149.5C13 148.97 12.7893 148.461 12.4142 148.086C12.0391 147.711 11.5304 147.5 11 147.5Z" fill="white"/>
<path d="M118.154 155.5H109.846C109.343 155.54 108.874 155.768 108.532 156.139C108.19 156.51 108 156.996 108 157.5C108 158.004 108.19 158.49 108.532 158.861C108.874 159.232 109.343 159.46 109.846 159.5H118.154C118.657 159.46 119.126 159.232 119.468 158.861C119.81 158.49 120 158.004 120 157.5C120 156.996 119.81 156.51 119.468 156.139C119.126 155.768 118.657 155.54 118.154 155.5V155.5ZM58.1539 155.5H49.8461C49.3433 155.54 48.8742 155.768 48.5321 156.139C48.1899 156.51 48 156.996 48 157.5C48 158.004 48.1899 158.49 48.5321 158.861C48.8742 159.232 49.3433 159.46 49.8461 159.5H58.1539C58.6566 159.46 59.1258 159.232 59.4679 158.861C59.81 158.49 60 158.004 60 157.5C60 156.996 59.81 156.51 59.4679 156.139C59.1258 155.768 58.6566 155.54 58.1539 155.5V155.5ZM104 155.5H64C63.4696 155.5 62.9609 155.711 62.5858 156.086C62.2107 156.461 62 156.97 62 157.5C62 158.03 62.2107 158.539 62.5858 158.914C62.9609 159.289 63.4696 159.5 64 159.5H79.94V161.5H72C71.4696 161.5 70.9609 161.711 70.5858 162.086C70.2107 162.461 70 162.97 70 163.5C70 164.03 70.2107 164.539 70.5858 164.914C70.9609 165.289 71.4696 165.5 72 165.5H97C97.5304 165.5 98.0391 165.289 98.4142 164.914C98.7893 164.539 99 164.03 99 163.5C99 162.97 98.7893 162.461 98.4142 162.086C98.0391 161.711 97.5304 161.5 97 161.5H88.06V159.5H104C104.53 159.5 105.039 159.289 105.414 158.914C105.789 158.539 106 158.03 106 157.5C106 156.97 105.789 156.461 105.414 156.086C105.039 155.711 104.53 155.5 104 155.5Z" fill="#0BCEB2"/>
<path d="M59 51.79V46.5C59.0009 46.1465 58.9078 45.7991 58.7303 45.4934C58.5529 45.1877 58.2974 44.9346 57.99 44.76L43.99 36.76C43.6855 36.5878 43.3412 36.4983 42.9913 36.5005C42.6415 36.5027 42.2983 36.5964 41.9959 36.7724C41.6936 36.9483 41.4425 37.2004 41.2678 37.5035C41.0931 37.8066 41.0008 38.1502 41 38.5V59.97L33 53.54V37.21C34.6113 36.7296 35.9959 35.6853 36.9005 34.2679C37.8052 32.8506 38.1694 31.155 37.9267 29.4912C37.6839 27.8274 36.8504 26.3066 35.5785 25.2068C34.3067 24.107 32.6814 23.5018 31 23.5018C29.3186 23.5018 27.6934 24.107 26.4215 25.2068C25.1496 26.3066 24.3161 27.8274 24.0733 29.4912C23.8306 31.155 24.1949 32.8506 25.0995 34.2679C26.0041 35.6853 27.3887 36.7296 29 37.21V54.5C29.0007 54.7995 29.0684 55.0951 29.1982 55.365C29.328 55.635 29.5165 55.8724 29.75 56.06L40.75 64.89C40.8269 64.9557 40.9107 65.0127 41 65.06V86.5C40.9989 86.9769 41.1693 87.4383 41.48 87.8L47 94.24V110.79C45.3887 111.27 44.0041 112.315 43.0995 113.732C42.1949 115.149 41.8306 116.845 42.0733 118.509C42.3161 120.173 43.1496 121.693 44.4215 122.793C45.6934 123.893 47.3186 124.498 49 124.498C50.6814 124.498 52.3067 123.893 53.5785 122.793C54.8504 121.693 55.6839 120.173 55.9267 118.509C56.1694 116.845 55.8052 115.149 54.9005 113.732C53.9959 112.315 52.6113 111.27 51 110.79V93.5C51.0011 93.0231 50.8307 92.5617 50.52 92.2L45 85.76V41.95L55 47.66V51.79C53.3887 52.2704 52.0041 53.3148 51.0995 54.7321C50.1949 56.1494 49.8306 57.845 50.0733 59.5088C50.3161 61.1726 51.1496 62.6934 52.4215 63.7932C53.6934 64.893 55.3186 65.4982 57 65.4982C58.6814 65.4982 60.3067 64.893 61.5785 63.7932C62.8504 62.6934 63.6839 61.1726 63.9267 59.5088C64.1694 57.845 63.8052 56.1494 62.9005 54.7321C61.9959 53.3148 60.6113 52.2704 59 51.79V51.79ZM28 30.5C28 29.9067 28.176 29.3266 28.5056 28.8333C28.8353 28.3399 29.3038 27.9554 29.852 27.7284C30.4001 27.5013 31.0033 27.4419 31.5853 27.5576C32.1672 27.6734 32.7018 27.9591 33.1213 28.3787C33.5409 28.7982 33.8266 29.3328 33.9424 29.9147C34.0581 30.4967 33.9987 31.0999 33.7717 31.6481C33.5446 32.1962 33.1601 32.6648 32.6667 32.9944C32.1734 33.3241 31.5934 33.5 31 33.5C30.6059 33.5005 30.2156 33.4233 29.8513 33.2727C29.4871 33.1221 29.1562 32.9012 28.8775 32.6225C28.5988 32.3438 28.3779 32.0129 28.2273 31.6487C28.0767 31.2845 27.9995 30.8941 28 30.5V30.5ZM52 117.5C52 118.093 51.8241 118.673 51.4944 119.167C51.1648 119.66 50.6962 120.045 50.1481 120.272C49.5999 120.499 48.9967 120.558 48.4147 120.442C47.8328 120.327 47.2983 120.041 46.8787 119.621C46.4591 119.202 46.1734 118.667 46.0577 118.085C45.9419 117.503 46.0013 116.9 46.2284 116.352C46.4554 115.804 46.84 115.335 47.3333 115.006C47.8267 114.676 48.4067 114.5 49 114.5C49.3941 114.499 49.7845 114.577 50.1487 114.727C50.5129 114.878 50.8438 115.099 51.1225 115.378C51.4012 115.656 51.6222 115.987 51.7727 116.351C51.9233 116.716 52.0005 117.106 52 117.5V117.5ZM57 61.5C56.4067 61.5 55.8267 61.3241 55.3333 60.9944C54.84 60.6648 54.4554 60.1962 54.2284 59.6481C54.0013 59.0999 53.9419 58.4967 54.0577 57.9147C54.1734 57.3328 54.4591 56.7982 54.8787 56.3787C55.2983 55.9591 55.8328 55.6734 56.4147 55.5576C56.9967 55.4419 57.5999 55.5013 58.1481 55.7284C58.6962 55.9554 59.1648 56.3399 59.4944 56.8333C59.8241 57.3266 60 57.9067 60 58.5C60.0005 58.8941 59.9233 59.2845 59.7727 59.6487C59.6222 60.0129 59.4012 60.3438 59.1225 60.6225C58.8438 60.9012 58.5129 61.1221 58.1487 61.2727C57.7845 61.4233 57.3941 61.5005 57 61.5V61.5Z" fill="white"/>
<path d="M77.41 53.09L70 45.67V30.5C70 29.9696 69.7893 29.4609 69.4142 29.0858C69.0392 28.7107 68.5304 28.5 68 28.5C67.4696 28.5 66.9609 28.7107 66.5858 29.0858C66.2107 29.4609 66 29.9696 66 30.5V46.5C65.9992 46.7625 66.051 47.0225 66.1524 47.2647C66.2537 47.5069 66.4025 47.7263 66.59 47.91L74 55.33V84.67L59 99.67V85.21C60.6113 84.7296 61.9959 83.6852 62.9005 82.2679C63.8052 80.8506 64.1694 79.155 63.9267 77.4912C63.6839 75.8274 62.8504 74.3066 61.5785 73.2068C60.3067 72.107 58.6814 71.5018 57 71.5018C55.3186 71.5018 53.6934 72.107 52.4215 73.2068C51.1496 74.3066 50.3161 75.8274 50.0733 77.4912C49.8306 79.155 50.1949 80.8506 51.0995 82.2679C52.0041 83.6852 53.3887 84.7296 55 85.21V104.5C55.0004 104.895 55.1174 105.281 55.3361 105.61C55.5549 105.939 55.8658 106.197 56.23 106.35C56.4748 106.449 56.7361 106.5 57 106.5C57.2626 106.501 57.5227 106.45 57.7649 106.348C58.0072 106.247 58.2265 106.098 58.41 105.91L77.41 86.91C77.5975 86.7263 77.7463 86.5069 77.8477 86.2647C77.949 86.0225 78.0008 85.7625 78 85.5V54.5C78.0008 54.2375 77.949 53.9775 77.8477 53.7353C77.7463 53.4931 77.5975 53.2737 77.41 53.09V53.09ZM57 81.5C56.4067 81.5 55.8267 81.3241 55.3333 80.9944C54.84 80.6648 54.4554 80.1962 54.2284 79.648C54.0013 79.0999 53.9419 78.4967 54.0577 77.9147C54.1734 77.3328 54.4591 76.7982 54.8787 76.3787C55.2983 75.9591 55.8328 75.6734 56.4147 75.5576C56.9967 75.4419 57.5999 75.5013 58.1481 75.7284C58.6962 75.9554 59.1648 76.3399 59.4944 76.8333C59.8241 77.3266 60 77.9067 60 78.5C60.0005 78.8941 59.9233 79.2845 59.7727 79.6487C59.6222 80.0129 59.4012 80.3438 59.1225 80.6225C58.8438 80.9012 58.5129 81.1221 58.1487 81.2727C57.7845 81.4233 57.3941 81.5005 57 81.5V81.5ZM32 96.79V83.21C33.6113 82.7296 34.9959 81.6852 35.9005 80.2679C36.8052 78.8506 37.1694 77.155 36.9267 75.4912C36.6839 73.8274 35.8504 72.3066 34.5785 71.2068C33.3067 70.107 31.6814 69.5018 30 69.5018C28.3186 69.5018 26.6934 70.107 25.4215 71.2068C24.1496 72.3066 23.3161 73.8274 23.0733 75.4912C22.8306 77.155 23.1949 78.8506 24.0995 80.2679C25.0041 81.6852 26.3887 82.7296 28 83.21V96.79C26.3887 97.2704 25.0041 98.3148 24.0995 99.7321C23.1949 101.149 22.8306 102.845 23.0733 104.509C23.3161 106.173 24.1496 107.693 25.4215 108.793C26.6934 109.893 28.3186 110.498 30 110.498C31.6814 110.498 33.3067 109.893 34.5785 108.793C35.8504 107.693 36.6839 106.173 36.9267 104.509C37.1694 102.845 36.8052 101.149 35.9005 99.7321C34.9959 98.3148 33.6113 97.2704 32 96.79ZM27 76.5C27 75.9067 27.176 75.3266 27.5056 74.8333C27.8353 74.3399 28.3038 73.9554 28.852 73.7284C29.4001 73.5013 30.0033 73.4419 30.5853 73.5576C31.1672 73.6734 31.7018 73.9591 32.1213 74.3787C32.5409 74.7982 32.8266 75.3328 32.9424 75.9147C33.0581 76.4967 32.9987 77.0999 32.7717 77.648C32.5446 78.1962 32.1601 78.6648 31.6667 78.9944C31.1734 79.3241 30.5934 79.5 30 79.5C29.6059 79.5005 29.2156 79.4233 28.8513 79.2727C28.4871 79.1221 28.1562 78.9012 27.8775 78.6225C27.5988 78.3438 27.3779 78.0129 27.2273 77.6487C27.0767 77.2845 26.9995 76.8941 27 76.5ZM30 106.5C29.4067 106.5 28.8267 106.324 28.3333 105.994C27.84 105.665 27.4554 105.196 27.2284 104.648C27.0013 104.1 26.9419 103.497 27.0577 102.915C27.1734 102.333 27.4591 101.798 27.8787 101.379C28.2983 100.959 28.8328 100.673 29.4147 100.558C29.9967 100.442 30.5999 100.501 31.1481 100.728C31.6962 100.955 32.1648 101.34 32.4944 101.833C32.8241 102.327 33 102.907 33 103.5C33.0005 103.894 32.9233 104.284 32.7727 104.649C32.6222 105.013 32.4012 105.344 32.1225 105.622C31.8438 105.901 31.5129 106.122 31.1487 106.273C30.7845 106.423 30.3941 106.501 30 106.5V106.5Z" fill="#0BCEB2"/>
<path d="M160 147.5H157C156.47 147.5 155.961 147.711 155.586 148.086C155.211 148.461 155 148.97 155 149.5C155 150.03 155.211 150.539 155.586 150.914C155.961 151.289 156.47 151.5 157 151.5H160C160.53 151.5 161.039 151.289 161.414 150.914C161.789 150.539 162 150.03 162 149.5C162 148.97 161.789 148.461 161.414 148.086C161.039 147.711 160.53 147.5 160 147.5Z" fill="white"/>
<path d="M166 151.5C167.105 151.5 168 150.605 168 149.5C168 148.395 167.105 147.5 166 147.5C164.895 147.5 164 148.395 164 149.5C164 150.605 164.895 151.5 166 151.5Z" fill="white"/>
<path d="M150.72 147.5H128.46C129.898 145.642 130.679 143.359 130.68 141.01V136.84L133.99 134.22C134.394 133.903 134.66 133.442 134.733 132.933C134.805 132.425 134.679 131.908 134.38 131.49L131.87 127.98L135.86 126.59C136.359 126.417 136.769 126.054 137.001 125.58C137.233 125.106 137.269 124.56 137.1 124.06L134.98 117.77H140.79C141.469 117.768 142.138 117.601 142.739 117.284C143.34 116.967 143.855 116.509 144.24 115.95C144.634 115.374 144.884 114.712 144.968 114.019C145.051 113.326 144.966 112.623 144.72 111.97L136.2 89.31L138.63 84C138.75 83.7397 138.811 83.4565 138.81 83.17V72.09C138.18 56.9699 132.01 44.25 120.96 35.3C110.588 27.1039 97.6054 22.9279 84.4 23.54C84.2686 23.5114 84.1344 23.498 84 23.5H76C75.47 23.5016 74.9622 23.7128 74.5875 24.0875C74.2128 24.4622 74.0016 24.97 74 25.5V41.5C73.9992 41.7625 74.051 42.0225 74.1524 42.2647C74.2537 42.5069 74.4025 42.7263 74.59 42.91L82.59 50.91C82.7737 51.0975 82.9931 51.2463 83.2353 51.3476C83.4775 51.449 83.7375 51.5008 84 51.5H96C96.2625 51.5008 96.5225 51.449 96.7647 51.3476C97.0069 51.2463 97.2263 51.0975 97.41 50.91L100.67 47.66C102.148 48.4581 103.863 48.6977 105.503 48.335C107.143 47.9723 108.598 47.0316 109.601 45.6848C110.604 44.338 111.09 42.675 110.968 41C110.846 39.3249 110.126 37.7496 108.938 36.562C107.75 35.3744 106.175 34.6539 104.5 34.5322C102.825 34.4104 101.162 34.8956 99.8152 35.899C98.4684 36.9023 97.5277 38.3569 97.165 39.9968C96.8023 41.6366 97.0419 43.3523 97.84 44.83L95.17 47.5H84.83L78 40.67V27.5H83.81C84.0001 27.5435 84.1958 27.5569 84.39 27.54C102.19 26.87 120.53 34.93 129.39 51.5H122.71C122.363 50.3383 121.721 49.2865 120.846 48.4475C119.971 47.6085 118.893 47.0112 117.718 46.7139C116.543 46.4166 115.31 46.4295 114.142 46.7515C112.973 47.0735 111.908 47.6934 111.051 48.5506C110.193 49.4078 109.573 50.4729 109.252 51.6417C108.93 52.8104 108.917 54.0427 109.214 55.218C109.511 56.3932 110.109 57.4712 110.948 58.3462C111.786 59.2213 112.838 59.8635 114 60.21V78.5H99C98.47 78.5016 97.9622 78.7128 97.5875 79.0875C97.2128 79.4622 97.0016 79.97 97 80.5V91.5H81C80.7375 91.4992 80.4775 91.551 80.2353 91.6524C79.9931 91.7537 79.7737 91.9025 79.59 92.09L63.59 108.09C63.4025 108.274 63.2537 108.493 63.1524 108.735C63.051 108.977 62.9992 109.237 63 109.5V125.79C61.3887 126.27 60.0041 127.315 59.0995 128.732C58.1948 130.149 57.8306 131.845 58.0733 133.509C58.3161 135.173 59.1496 136.693 60.4215 137.793C61.6933 138.893 63.3186 139.498 65 139.498C66.6814 139.498 68.3067 138.893 69.5785 137.793C70.8504 136.693 71.6839 135.173 71.9267 133.509C72.1694 131.845 71.8052 130.149 70.9005 128.732C69.9959 127.315 68.6113 126.27 67 125.79V110.33L81.83 95.5H118C118.372 95.4998 118.737 95.3958 119.053 95.1997C119.369 95.0036 119.624 94.7232 119.79 94.39L125.79 82.39C125.93 82.1143 126.002 81.8091 126 81.5V74.5H134.81V82.74L132.22 88.4C132.001 88.8861 131.979 89.4383 132.16 89.94L140.98 113.39C141 113.437 141.007 113.488 141.002 113.539C140.997 113.589 140.979 113.638 140.95 113.68C140.933 113.707 140.909 113.729 140.881 113.745C140.853 113.761 140.822 113.769 140.79 113.77H132.2C131.881 113.77 131.566 113.846 131.283 113.992C130.999 114.138 130.755 114.35 130.57 114.61C130.387 114.868 130.268 115.165 130.221 115.478C130.174 115.791 130.201 116.11 130.3 116.41L132.68 123.46L128.03 125.08C127.735 125.18 127.469 125.347 127.251 125.57C127.034 125.792 126.873 126.063 126.78 126.36C126.685 126.656 126.661 126.971 126.71 127.278C126.759 127.586 126.878 127.877 127.06 128.13L130.02 132.27L127.44 134.3C127.203 134.488 127.012 134.726 126.88 134.998C126.749 135.27 126.68 135.568 126.68 135.87V141.01C126.686 142.142 126.397 143.255 125.843 144.242C125.289 145.229 124.489 146.055 123.52 146.64C122.579 147.2 121.505 147.497 120.41 147.5C112.05 147.5 80 136.98 80 119.5V115.33C80 114.8 79.7893 114.291 79.4142 113.916C79.0391 113.541 78.5304 113.33 78 113.33C77.4696 113.33 76.9609 113.541 76.5858 113.916C76.2107 114.291 76 114.8 76 115.33V119.5C76 133.3 91.03 142.63 103.94 147.5H17.28C16.9953 147.463 16.706 147.486 16.4313 147.57C16.1565 147.653 15.9028 147.794 15.6869 147.984C15.4711 148.173 15.2982 148.406 15.1797 148.668C15.0612 148.929 14.9999 149.213 14.9999 149.5C14.9999 149.787 15.0612 150.071 15.1797 150.332C15.2982 150.594 15.4711 150.827 15.6869 151.016C15.9028 151.206 16.1565 151.347 16.4313 151.43C16.706 151.514 16.9953 151.537 17.28 151.5H150.72C151.005 151.537 151.294 151.514 151.569 151.43C151.843 151.347 152.097 151.206 152.313 151.016C152.529 150.827 152.702 150.594 152.82 150.332C152.939 150.071 153 149.787 153 149.5C153 149.213 152.939 148.929 152.82 148.668C152.702 148.406 152.529 148.173 152.313 147.984C152.097 147.794 151.843 147.653 151.569 147.57C151.294 147.486 151.005 147.463 150.72 147.5V147.5ZM104 38.5C104.593 38.5 105.173 38.6759 105.667 39.0056C106.16 39.3352 106.545 39.8038 106.772 40.352C106.999 40.9001 107.058 41.5033 106.942 42.0853C106.827 42.6672 106.541 43.2018 106.121 43.6213C105.702 44.0409 105.167 44.3266 104.585 44.4424C104.003 44.5581 103.4 44.4987 102.852 44.2716C102.304 44.0446 101.835 43.6601 101.506 43.1667C101.176 42.6734 101 42.0933 101 41.5C100.999 41.1059 101.077 40.7155 101.227 40.3513C101.378 39.9871 101.599 39.6562 101.878 39.3775C102.156 39.0988 102.487 38.8779 102.851 38.7273C103.216 38.5767 103.606 38.4995 104 38.5V38.5ZM68 132.5C68 133.093 67.8241 133.673 67.4944 134.167C67.1648 134.66 66.6962 135.045 66.148 135.272C65.5999 135.499 64.9967 135.558 64.4147 135.442C63.8328 135.327 63.2982 135.041 62.8787 134.621C62.4591 134.202 62.1734 133.667 62.0576 133.085C61.9419 132.503 62.0013 131.9 62.2284 131.352C62.4554 130.804 62.8399 130.335 63.3333 130.006C63.8266 129.676 64.4067 129.5 65 129.5C65.3941 129.499 65.7845 129.577 66.1487 129.727C66.5129 129.878 66.8438 130.099 67.1225 130.378C67.4012 130.656 67.6221 130.987 67.7727 131.351C67.9233 131.716 68.0005 132.106 68 132.5V132.5ZM113 53.5C113 52.9067 113.176 52.3266 113.506 51.8333C113.835 51.3399 114.304 50.9554 114.852 50.7284C115.4 50.5013 116.003 50.4419 116.585 50.5576C117.167 50.6734 117.702 50.9591 118.121 51.3787C118.541 51.7982 118.827 52.3328 118.942 52.9147C119.058 53.4967 118.999 54.0999 118.772 54.648C118.545 55.1962 118.16 55.6648 117.667 55.9944C117.173 56.3241 116.593 56.5 116 56.5C115.606 56.5005 115.216 56.4233 114.851 56.2727C114.487 56.1221 114.156 55.9012 113.878 55.6225C113.599 55.3438 113.378 55.0129 113.227 54.6487C113.077 54.2845 112.999 53.8941 113 53.5ZM124 70.5C123.47 70.5016 122.962 70.7128 122.588 71.0875C122.213 71.4622 122.002 71.97 122 72.5V81.03L116.76 91.5H101V82.5H116C116.263 82.5001 116.523 82.4484 116.765 82.3479C117.008 82.2474 117.229 82.1001 117.414 81.9144C117.6 81.7286 117.747 81.5081 117.848 81.2654C117.948 81.0228 118 80.7627 118 80.5V60.21C119.111 59.8718 120.122 59.2652 120.944 58.4437C121.765 57.6223 122.372 56.6113 122.71 55.5H131.27C133.206 60.285 134.364 65.349 134.7 70.5H124Z" fill="white"/>
<path d="M103 58.5C101.838 58.5016 100.694 58.7901 99.67 59.34L96.41 56.09C96.2263 55.9025 96.0069 55.7537 95.7647 55.6524C95.5225 55.551 95.2625 55.4992 95 55.5H84C83.47 55.5016 82.9622 55.7128 82.5875 56.0875C82.2128 56.4622 82.0016 56.97 82 57.5V73.5C82.0014 73.7886 82.0646 74.0736 82.1854 74.3358C82.3061 74.598 82.4816 74.8313 82.7 75.02L89 80.42V91.5H93V79.5C93.0008 79.211 92.9386 78.9253 92.8177 78.6628C92.6968 78.4002 92.5202 78.1673 92.3 77.98L86 72.58V59.5H94.17L96.84 62.17C96.1105 63.5183 95.8437 65.0687 96.0805 66.5832C96.3173 68.0978 97.0446 69.4928 98.1508 70.5541C99.2569 71.6154 100.681 72.2844 102.204 72.4583C103.727 72.6322 105.265 72.3015 106.582 71.5169C107.899 70.7322 108.922 69.5371 109.494 68.1149C110.066 66.6928 110.156 65.1221 109.749 63.6441C109.342 62.1661 108.462 60.8624 107.243 59.9331C106.023 59.0039 104.533 58.5004 103 58.5V58.5ZM103 68.5C102.407 68.5 101.827 68.3241 101.333 67.9944C100.84 67.6648 100.455 67.1962 100.228 66.648C100.001 66.0999 99.9419 65.4967 100.058 64.9147C100.173 64.3328 100.459 63.7982 100.879 63.3787C101.298 62.9591 101.833 62.6734 102.415 62.5576C102.997 62.4419 103.6 62.5013 104.148 62.7284C104.696 62.9554 105.165 63.3399 105.494 63.8333C105.824 64.3266 106 64.9067 106 65.5C106.001 65.8941 105.923 66.2845 105.773 66.6487C105.622 67.0129 105.401 67.3438 105.122 67.6225C104.844 67.9012 104.513 68.1221 104.149 68.2727C103.784 68.4233 103.394 68.5005 103 68.5Z" fill="#0BCEB2"/>
<path d="M54 30.5C54.5933 30.5 55.1734 30.3241 55.6667 29.9944C56.16 29.6648 56.5446 29.1962 56.7716 28.6481C56.9987 28.0999 57.0581 27.4967 56.9423 26.9147C56.8266 26.3328 56.5409 25.7982 56.1213 25.3787C55.7018 24.9591 55.1672 24.6734 54.5853 24.5576C54.0033 24.4419 53.4001 24.5013 52.8519 24.7284C52.3038 24.9554 51.8352 25.3399 51.5056 25.8333C51.1759 26.3266 51 26.9067 51 27.5C51.0009 28.2954 51.3173 29.0579 51.8797 29.6203C52.4421 30.1827 53.2046 30.4991 54 30.5ZM54 26C54.2967 26 54.5867 26.088 54.8333 26.2528C55.08 26.4176 55.2723 26.6519 55.3858 26.926C55.4993 27.2001 55.529 27.5017 55.4712 27.7926C55.4133 28.0836 55.2704 28.3509 55.0607 28.5607C54.8509 28.7704 54.5836 28.9133 54.2926 28.9712C54.0017 29.0291 53.7001 28.9993 53.426 28.8858C53.1519 28.7723 52.9176 28.58 52.7528 28.3334C52.588 28.0867 52.5 27.7967 52.5 27.5C52.5004 27.1023 52.6585 26.721 52.9398 26.4398C53.221 26.1586 53.6023 26.0004 54 26ZM148.856 44.5C148.461 44.5 148.074 44.6173 147.745 44.8371C147.416 45.0568 147.16 45.3692 147.009 45.7346C146.857 46.1001 146.818 46.5022 146.895 46.8902C146.972 47.2781 147.162 47.6345 147.442 47.9142C147.722 48.1939 148.078 48.3844 148.466 48.4616C148.854 48.5387 149.256 48.4991 149.622 48.3478C149.987 48.1964 150.3 47.94 150.519 47.6111C150.739 47.2822 150.856 46.8956 150.856 46.5C150.856 45.9698 150.645 45.4614 150.27 45.0865C149.895 44.7115 149.387 44.5006 148.856 44.5ZM148.856 47.5C148.659 47.5 148.465 47.4414 148.301 47.3315C148.136 47.2216 148.008 47.0654 147.933 46.8827C147.857 46.7 147.837 46.4989 147.876 46.3049C147.914 46.1109 148.009 45.9327 148.149 45.7929C148.289 45.653 148.467 45.5578 148.661 45.5192C148.855 45.4806 149.056 45.5004 149.239 45.5761C149.422 45.6518 149.578 45.78 149.688 45.9444C149.798 46.1089 149.856 46.3022 149.856 46.5C149.856 46.7651 149.751 47.0193 149.563 47.2068C149.376 47.3943 149.122 47.4997 148.856 47.5V47.5ZM132.7 23.5C132.304 23.5 131.918 23.6173 131.589 23.8371C131.26 24.0568 131.004 24.3692 130.852 24.7346C130.701 25.1001 130.661 25.5022 130.738 25.8902C130.816 26.2781 131.006 26.6345 131.286 26.9142C131.565 27.1939 131.922 27.3844 132.31 27.4616C132.698 27.5387 133.1 27.4991 133.465 27.3478C133.831 27.1964 134.143 26.94 134.363 26.6111C134.583 26.2822 134.7 25.8956 134.7 25.5C134.699 24.9698 134.488 24.4614 134.114 24.0865C133.739 23.7115 133.23 23.5006 132.7 23.5V23.5ZM132.7 26.5C132.502 26.5 132.309 26.4414 132.144 26.3315C131.98 26.2216 131.852 26.0654 131.776 25.8827C131.7 25.7 131.681 25.4989 131.719 25.3049C131.758 25.1109 131.853 24.9327 131.993 24.7929C132.133 24.653 132.311 24.5578 132.505 24.5192C132.699 24.4806 132.9 24.5004 133.083 24.5761C133.265 24.6518 133.422 24.78 133.531 24.9444C133.641 25.1089 133.7 25.3022 133.7 25.5C133.7 25.7651 133.594 26.0193 133.407 26.2068C133.219 26.3943 132.965 26.4997 132.7 26.5ZM149.856 2.5C149.461 2.5 149.074 2.6173 148.745 2.83706C148.416 3.05682 148.16 3.36918 148.009 3.73463C147.857 4.10009 147.818 4.50222 147.895 4.89018C147.972 5.27814 148.162 5.63451 148.442 5.91421C148.722 6.19392 149.078 6.3844 149.466 6.46157C149.854 6.53874 150.256 6.49913 150.622 6.34776C150.987 6.19638 151.3 5.94004 151.519 5.61114C151.739 5.28224 151.856 4.89556 151.856 4.5C151.856 3.96975 151.645 3.4614 151.27 3.08646C150.895 2.71151 150.387 2.50061 149.856 2.5ZM149.856 5.5C149.659 5.5 149.465 5.44135 149.301 5.33147C149.136 5.22159 149.008 5.06541 148.933 4.88268C148.857 4.69996 148.837 4.49889 148.876 4.30491C148.914 4.11093 149.009 3.93275 149.149 3.79289C149.289 3.65304 149.467 3.5578 149.661 3.51921C149.855 3.48063 150.056 3.50043 150.239 3.57612C150.422 3.65181 150.578 3.77998 150.688 3.94443C150.798 4.10888 150.856 4.30222 150.856 4.5C150.856 4.76514 150.751 5.01934 150.563 5.20681C150.376 5.39429 150.122 5.49974 149.856 5.5V5.5ZM11.6953 48.5C11.6953 48.1044 11.578 47.7178 11.3582 47.3889C11.1385 47.06 10.8261 46.8036 10.4607 46.6522C10.0952 46.5009 9.69306 46.4613 9.3051 46.5384C8.91714 46.6156 8.56077 46.8061 8.28107 47.0858C8.00136 47.3655 7.81088 47.7219 7.73371 48.1098C7.65654 48.4978 7.69615 48.8999 7.84752 49.2654C7.9989 49.6308 8.25524 49.9432 8.58414 50.1629C8.91304 50.3827 9.29972 50.5 9.69528 50.5C10.2255 50.4994 10.7339 50.2885 11.1088 49.9135C11.4838 49.5386 11.6947 49.0302 11.6953 48.5ZM8.69528 48.5C8.69528 48.3022 8.75393 48.1089 8.86381 47.9444C8.97369 47.78 9.12987 47.6518 9.3126 47.5761C9.49533 47.5004 9.69639 47.4806 9.89037 47.5192C10.0844 47.5578 10.2625 47.653 10.4024 47.7929C10.5422 47.9327 10.6375 48.1109 10.6761 48.3049C10.7147 48.4989 10.6948 48.7 10.6192 48.8827C10.5435 49.0654 10.4153 49.2216 10.2509 49.3315C10.0864 49.4414 9.89306 49.5 9.69528 49.5C9.43015 49.4997 9.17595 49.3943 8.98847 49.2068C8.80099 49.0193 8.69555 48.7651 8.69528 48.5Z" fill="white"/>
<path d="M8.111 11.765L9.597 9.81L8.658 9.278L7.704 11.468H7.672L6.703 9.293L5.747 9.841L7.219 11.75V11.781L4.918 11.484V12.548L7.234 12.251V12.282L5.747 14.19L6.639 14.754L7.657 12.548H7.688L8.627 14.738L9.613 14.175L8.111 12.297V12.266L10.473 12.548V11.484L8.111 11.797V11.765Z" fill="#0BCEB2"/>
<path d="M38.334 6.23L37.478 7.329L37.991 7.654L38.577 6.383H38.595L39.136 7.644L39.704 7.32L38.839 6.239V6.221L40.199 6.383V5.77L38.839 5.95V5.932L39.695 4.806L39.154 4.5L38.604 5.761H38.586L38.028 4.509L37.478 4.824L38.325 5.924V5.942L37 5.77V6.383L38.334 6.212V6.23Z" fill="#0BCEB2"/>
<path d="M163.029 29.021V27.978L160.712 28.285V28.254L162.17 26.336L161.249 25.814L160.313 27.962H160.282L159.331 25.829L158.394 26.367L159.837 28.239V28.27L157.581 27.978V29.021L159.852 28.73V28.761L158.394 30.633L159.269 31.186L160.267 29.021H160.297L161.218 31.17L162.185 30.618L160.712 28.776V28.745L163.029 29.021Z" fill="#0BCEB2"/>
<path d="M80.701 13.288L81.959 11.633L81.165 11.183L80.357 13.036H80.33L79.51 11.196L78.702 11.66L79.947 13.275V13.301L78 13.05V13.95L79.96 13.699V13.725L78.702 15.34L79.456 15.817L80.317 13.95H80.343L81.138 15.803L81.972 15.327L80.701 13.738V13.712L82.7 13.95V13.05L80.701 13.314V13.288Z" fill="#0BCEB2"/>
</svg>
