<svg width="80" height="90" viewBox="0 0 80 90" fill="none" xmlns="http://www.w3.org/2000/svg">
<path d="M49.7 76.6H30.3C29.3 76.6 28.4 77.4 28.4 78.5C28.5 84.8 33.6 90 40 90C46.4 90 51.5 84.8 51.5 78.5C51.5 77.4 50.7 76.6 49.7 76.6ZM40 86.3C36.4 86.3 33.3 83.8 32.4 80.3H47.6C46.7 83.8 43.6 86.3 40 86.3Z" fill="black"/>
<path d="M71.3 55.5C69.1 55.5 67.4 53.7 67.4 51.6V34.4C67.4 25.7 63.3 17.5 56.3 12.4C55.5 11.8 54.3 12 53.7 12.8C53.1 13.6 53.3 14.8 54.1 15.4C60.1 19.9 63.7 26.9 63.7 34.4V51.5C63.7 55.7 67.1 59.2 71.4 59.2C74.1 59.2 76.2 61.4 76.2 64V64.7C76.2 67.4 74 69.5 71.4 69.5H8.69999C5.99999 69.5 3.89999 67.3 3.89999 64.7V64C3.89999 61.3 6.09999 59.2 8.69999 59.2C12.9 59.2 16.4 55.8 16.4 51.5V34.4C16.4 26.9 20 19.8 26 15.4C26.8 14.8 27 13.6 26.4 12.8C25.8 12 24.6 11.8 23.8 12.4C16.8 17.6 12.7 25.7 12.7 34.4V51.5C12.7 53.7 10.9 55.4 8.79999 55.4C4.09999 55.4 0.299988 59.2 0.299988 63.9V64.6C0.299988 69.3 4.09999 73.1 8.79999 73.1H71.4C76.1 73.1 79.9 69.3 79.9 64.6V64C79.8 59.3 76 55.5 71.3 55.5Z" fill="black"/>
<path d="M33.6 42.6C33.6 46.1 36.5 49 40 49C43.5 49 46.4 46.1 46.4 42.6C46.4 39.1 43.5 36.2 40 36.2C36.5 36.2 33.6 39.1 33.6 42.6ZM42.7 42.6C42.7 44.1 41.5 45.3 40 45.3C38.5 45.3 37.3 44.1 37.3 42.6C37.3 41.1 38.5 39.9 40 39.9C41.5 39.9 42.7 41.1 42.7 42.6Z" fill="black"/>
<path d="M40 34.4C42.9 34.4 45.3 31.1 47.4 24.3C48.8 19.8 49.8 14.1 49.8 11.1C49.9 5 45.4 0 40 0C34.6 0 30.1 5 30.1 11.1C30.1 14.1 31.1 19.8 32.5 24.3C34.7 31.1 37.1 34.4 40 34.4ZM40 3.7C43.4 3.7 46.1 7 46.1 11.1C46.1 13.3 45.3 18.4 43.9 22.9C42 29.1 40.3 30.6 40 30.7C39.6 30.6 37.9 29.2 36 22.9C34.6 18.4 33.8 13.3 33.8 11.1C33.9 7 36.6 3.7 40 3.7Z" fill="black"/>
</svg>
