<svg xmlns="http://www.w3.org/2000/svg" data-name="Layer 1" viewBox="0 0 100 125" x="0px" y="0px"><title>Artboard 2</title><path d="M39.09,45A15.94,15.94,0,0,0,46,58.12,18.54,18.54,0,0,1,39.26,65l-.17-.16a6.84,6.84,0,0,0-11.35,5.56h0a6.85,6.85,0,0,0,6.82,6.41H35a6.85,6.85,0,0,0,6.39-7.26h0a23.69,23.69,0,0,0,9.1-9.28,15.94,15.94,0,0,0,13-28.79A259.2,259.2,0,0,0,61.83,4.38a2.5,2.5,0,0,0-1.94-2.11A33.64,33.64,0,0,0,55,1.58a34.59,34.59,0,0,0-7.22.26A2.5,2.5,0,0,0,45.7,4.69,232,232,0,0,1,47.49,31,16,16,0,0,0,39.09,45Zm-4.4,26.84a1.84,1.84,0,1,1,1.72-2A1.84,1.84,0,0,1,34.69,71.84ZM51,6.55a29.56,29.56,0,0,1,3.71,0c.79.05,1.59.14,2.39.27.76,6.49,1.21,15.35,1.36,22.58a15.23,15.23,0,0,0-6-.15C52.29,22.13,51.8,13.19,51,6.55ZM55,34a11,11,0,1,1-11,11A11,11,0,0,1,55,34ZM9.55,61.86a5.52,5.52,0,0,1,0-4.47l5.73-12.85a14.25,14.25,0,0,0,1.24-5.84A37,37,0,0,1,37.35,5.3a2.5,2.5,0,0,1,2.2,4.49,32,32,0,0,0-18,28.91,19.21,19.21,0,0,1-1.68,7.87L14.12,59.42a.51.51,0,0,0,.31.69l5.38,1.78a2.5,2.5,0,0,1,1.71,2.37v13.2a3.74,3.74,0,0,0,3.74,3.74H38.69A2.5,2.5,0,0,1,41.09,83l2.79,9.77a1,1,0,0,0,1.19.66L81,83.21A1,1,0,0,0,81.68,82L76.36,63.39A2.5,2.5,0,0,1,77,61a31.92,31.92,0,0,0,8.9-24.26A32.35,32.35,0,0,0,68.22,10a2.5,2.5,0,0,1,2.27-4.46A37.37,37.37,0,0,1,90.85,36.41a36.84,36.84,0,0,1-9.3,27l4.93,17.28A6,6,0,0,1,82.39,88L46.44,98.27a6,6,0,0,1-7.37-4.1l-2.27-8H25.27a8.75,8.75,0,0,1-8.74-8.74V66.08l-3.67-1.21A5.52,5.52,0,0,1,9.55,61.86Z"/></svg>