<svg xmlns="http://www.w3.org/2000/svg" viewBox="0 0 32 40" x="0px" y="0px"><title>The team</title><g data-name="Layer 11"><path d="M28,11.41a7.07,7.07,0,0,0-1.5-1.12,6,6,0,0,0,1.3-3.59,4.68,4.68,0,0,0-9.24-1.11,5.76,5.76,0,0,0-4.93-.07A4.68,4.68,0,0,0,4.39,6.7a6,6,0,0,0,1.32,3.6,6.91,6.91,0,0,0-3.54,6V18a3,3,0,0,0,3,3H7.54A9,9,0,0,0,7,24v3a3,3,0,0,0,3,3H22a3,3,0,0,0,3-3V24a9,9,0,0,0-.54-3H27a3,3,0,0,0,3-3V16.3A6.89,6.89,0,0,0,28,11.41ZM23.09,4a2.7,2.7,0,0,1,2.69,2.7,4,4,0,0,1-1.57,3l-.08,0a1.77,1.77,0,0,1-2.08,0l-.08,0-.13-.09c0-.13-.07-.26-.11-.38s-.05-.18-.08-.27a6,6,0,0,0-.83-1.56l-.17-.21c-.08-.1-.16-.21-.25-.31a1.7,1.7,0,0,1,0-.22A2.7,2.7,0,0,1,23.09,4ZM18.76,8.11A4,4,0,0,1,20,10.38a1.81,1.81,0,0,1,0,.4s0,.1,0,.13V11a5.78,5.78,0,0,1-1.87,4.08,4.4,4.4,0,0,1-.5.38,3.53,3.53,0,0,1-.76.4,2.7,2.7,0,0,1-1.59,0,3,3,0,0,1-.91-.44A5.71,5.71,0,0,1,12,10.94a2.83,2.83,0,0,0,0-.29,1.49,1.49,0,0,1,0-.17A4,4,0,0,1,13.42,8a4,4,0,0,1,5.34.16ZM9.09,4a2.7,2.7,0,0,1,2.69,2.7v0a3.31,3.31,0,0,0-.3.34l-.21.23a6.45,6.45,0,0,0-.54.82l-.05.1a6.19,6.19,0,0,0-.34.8c0,.12-.07.23-.1.35s-.08.26-.11.39h0a1.77,1.77,0,0,1-2.08,0L8,9.74a4,4,0,0,1-1.58-3A2.7,2.7,0,0,1,9.09,4ZM4.17,18V16.3a4.9,4.9,0,0,1,3.21-4.59l.06,0a3.88,3.88,0,0,0,1.23.37H8.8l.29,0,.22,0h.16A4,4,0,0,0,10,12l.11,0c0,.07,0,.13,0,.2a6.8,6.8,0,0,0,.18.75c0,.11.07.23.11.34a5,5,0,0,0,.25.64l.15.33c.11.22.23.43.36.64l.15.26a9.79,9.79,0,0,0,.62.82h0a10.11,10.11,0,0,0-.9.53l-.24.17c-.21.15-.42.31-.62.48l-.22.19a9.3,9.3,0,0,0-1.37,1.57L8.52,19H5.17A1,1,0,0,1,4.17,18ZM23,27a1,1,0,0,1-1,1H10a1,1,0,0,1-1-1V24A6.84,6.84,0,0,1,10,20.5a6.35,6.35,0,0,1,.67-1,.27.27,0,0,1,.07-.08,6.39,6.39,0,0,1,.78-.78l.12-.11a6.68,6.68,0,0,1,.89-.61l.16-.09a5.79,5.79,0,0,1,1-.45l.08,0,.18.09.18.09a3.94,3.94,0,0,0,.68.25,4,4,0,0,0,.65.14l.29,0L16,18h0a3.29,3.29,0,0,0,.54-.05h.17a7.22,7.22,0,0,0,.74-.18,6.74,6.74,0,0,0,.74-.33l.06,0,.27.09.32.14c.16.07.31.15.46.23a2.69,2.69,0,0,1,.29.16l.47.31.22.16a8.39,8.39,0,0,1,.63.56,6.5,6.5,0,0,1,1.11,1.45A6.93,6.93,0,0,1,23,24Zm5-9a1,1,0,0,1-1,1H23.48a3.55,3.55,0,0,0-.23-.31c-.06-.08-.11-.17-.18-.25a10.69,10.69,0,0,0-.7-.81,8.89,8.89,0,0,0-1-.84L21,16.56c-.26-.17-.52-.33-.79-.48-.06,0-.12-.08-.19-.11l0,0a7.68,7.68,0,0,0,.6-.78l.17-.29c.12-.2.24-.41.34-.62s.11-.23.16-.34a5.78,5.78,0,0,0,.25-.65,3.38,3.38,0,0,0,.11-.34,7.51,7.51,0,0,0,.19-.82l0-.15h0a3.92,3.92,0,0,0,.66.15h.08c.12,0,.25,0,.38,0l.23,0h.12a3.57,3.57,0,0,0,.64-.11h0a3.75,3.75,0,0,0,.63-.25l.06,0A4.91,4.91,0,0,1,28,16.3Z"/></g><text x="0" y="47" fill="#000000" font-size="5px" font-weight="bold" font-family="'Helvetica Neue', Helvetica, Arial-Unicode, Arial, Sans-serif">Created by CR Kurniawan</text><text x="0" y="52" fill="#000000" font-size="5px" font-weight="bold" font-family="'Helvetica Neue', Helvetica, Arial-Unicode, Arial, Sans-serif">from the Noun Project</text></svg>