<svg width="28" height="29" viewBox="0 0 28 29" fill="none" xmlns="http://www.w3.org/2000/svg">
<path d="M25.9877 9.52555C25.5368 9.08738 25.0293 8.71075 24.4785 8.40555C25.2962 7.38237 25.7554 6.12185 25.7865 4.81555C25.801 3.661 25.3856 2.54185 24.6202 1.6733C23.8547 0.804738 22.7933 0.248086 21.6399 0.110369C20.4865 -0.0273486 19.3226 0.26359 18.3719 0.927247C17.4213 1.5909 16.751 2.58042 16.4901 3.70556C15.72 3.32973 14.8757 3.1285 14.0179 3.11639C13.1602 3.10429 12.3104 3.28161 11.53 3.63556C11.2691 2.50296 10.5936 1.50733 9.63504 0.842329C8.67645 0.177332 7.50326 -0.109471 6.34368 0.0377146C5.18411 0.1849 4.12108 0.755548 3.3614 1.63865C2.60171 2.52175 2.1997 3.65415 2.23355 4.81555C2.26816 6.12763 2.73468 7.39223 3.56161 8.41556C2.48649 9.0125 1.59019 9.88258 0.964405 10.9368C0.338618 11.991 0.00580192 13.1915 0 14.4156V16.1156C0 16.9112 0.318 17.6743 0.884044 18.2369C1.45009 18.7995 2.21781 19.1156 3.01832 19.1156H5.40278C5.05138 20.0776 4.86765 21.0921 4.85949 22.1156V25.1156C4.85949 25.9112 5.17749 26.6743 5.74353 27.2369C6.30958 27.7995 7.0773 28.1156 7.8778 28.1156H19.9511C20.7516 28.1156 21.5193 27.7995 22.0853 27.2369C22.6514 26.6743 22.9694 25.9112 22.9694 25.1156V22.1156C22.9612 21.0921 22.7775 20.0776 22.4261 19.1156H24.9816C25.7821 19.1156 26.5498 18.7995 27.1159 18.2369C27.6819 17.6743 27.9999 16.9112 27.9999 16.1156V14.4156C28.0047 13.509 27.8294 12.6104 27.4841 11.7712C27.1388 10.9321 26.6303 10.169 25.9877 9.52555V9.52555ZM21.0477 2.11556C21.7664 2.1182 22.4548 2.40383 22.9621 2.90989C23.4693 3.41596 23.7541 4.1012 23.7541 4.81555C23.7276 5.39999 23.5724 5.97153 23.2995 6.48987C23.0266 7.00821 22.6426 7.46074 22.1746 7.81555H22.0941C21.7899 8.03509 21.4236 8.15332 21.0477 8.15332C20.6718 8.15332 20.3055 8.03509 20.0014 7.81555H19.9209L19.7901 7.72555C19.7901 7.59555 19.7197 7.46555 19.6794 7.34555C19.6392 7.22555 19.6291 7.16555 19.5989 7.07555C19.3996 6.51744 19.1182 5.99174 18.7639 5.51555L18.5928 5.30555C18.5123 5.20555 18.4318 5.09555 18.3413 4.99555C18.3365 4.9223 18.3365 4.84881 18.3413 4.77555C18.3518 4.06815 18.6413 3.39312 19.1474 2.89567C19.6536 2.39822 20.3359 2.1181 21.0477 2.11556V2.11556ZM16.6913 6.22555C17.3486 6.82401 17.7874 7.62244 17.9389 8.49555C17.9537 8.62848 17.9537 8.76263 17.9389 8.89555C17.9389 8.89555 17.9389 8.99555 17.9389 9.02555V9.11555C17.9148 9.88595 17.7359 10.6438 17.4128 11.3445C17.0897 12.0452 16.6289 12.6745 16.0574 13.1956C15.8991 13.334 15.731 13.461 15.5544 13.5756C15.3168 13.7393 15.0601 13.8737 14.7897 13.9756C14.2686 14.1351 13.7112 14.1351 13.19 13.9756C12.862 13.8814 12.5524 13.7326 12.2745 13.5356C11.5569 13.0216 10.9683 12.35 10.5548 11.5729C10.1412 10.7958 9.91367 9.93435 9.89001 9.05555C9.895 8.95895 9.895 8.86216 9.89001 8.76555C9.88676 8.70893 9.88676 8.65217 9.89001 8.59555C10.0427 7.62224 10.5515 6.73917 11.3187 6.11555C12.0766 5.47938 13.0442 5.14385 14.0358 5.17338C15.0274 5.20291 15.9731 5.59541 16.6913 6.27555V6.22555ZM6.96225 2.11556C7.68096 2.1182 8.36933 2.40383 8.87659 2.90989C9.38386 3.41596 9.66868 4.1012 9.66867 4.81555C9.56036 4.9219 9.45951 5.0355 9.36684 5.15555L9.15556 5.38555C8.95376 5.64477 8.77213 5.9189 8.61226 6.20555L8.56196 6.30555C8.42921 6.56392 8.3149 6.83125 8.21988 7.10555C8.21988 7.22555 8.14945 7.33555 8.11927 7.45555C8.08909 7.57555 8.03878 7.71555 8.0086 7.84555C7.70442 8.06509 7.33816 8.18332 6.96225 8.18332C6.58634 8.18332 6.22007 8.06509 5.9159 7.84555L5.86559 7.85555C5.39574 7.50174 5.00983 7.04964 4.73514 6.53125C4.46045 6.01285 4.30369 5.4408 4.27595 4.85555C4.27063 4.50014 4.33597 4.14719 4.46821 3.81694C4.60046 3.48668 4.79701 3.18564 5.0466 2.93106C5.29618 2.67649 5.59388 2.47341 5.92261 2.33346C6.25135 2.19352 6.60465 2.11947 6.96225 2.11556V2.11556ZM2.01221 16.1156V14.4156C2.01413 13.4141 2.32471 12.4373 2.90213 11.6167C3.47955 10.796 4.29609 10.1709 5.24181 9.82555H5.30217C5.69113 10.0164 6.10936 10.1414 6.53968 10.1956H6.67048H6.96225H7.18359H7.34457C7.52391 10.1808 7.70206 10.154 7.8778 10.1156H7.98847C7.98847 10.1856 7.98847 10.2456 7.98847 10.3156C8.03452 10.5688 8.09498 10.8192 8.16957 11.0656C8.16957 11.1756 8.24 11.2956 8.28025 11.4056C8.34922 11.6244 8.43326 11.8382 8.53177 12.0456L8.68269 12.3756C8.79336 12.5956 8.91409 12.8056 9.04489 13.0156L9.1958 13.2756C9.38914 13.5596 9.59735 13.8333 9.81959 14.0956V14.0956C9.50877 14.2566 9.20653 14.4335 8.91409 14.6256L8.67263 14.7956C8.46134 14.9456 8.25006 15.1056 8.04884 15.2756L7.8275 15.4656C7.31032 15.9359 6.84797 16.4626 6.44913 17.0356L6.38877 17.1156H3.01832C2.75148 17.1156 2.49557 17.0102 2.30689 16.8227C2.11821 16.6351 2.01221 16.3808 2.01221 16.1156ZM20.9572 25.1156C20.9572 25.3808 20.8512 25.6351 20.6625 25.8227C20.4738 26.0102 20.2179 26.1156 19.9511 26.1156H7.8778C7.61097 26.1156 7.35506 26.0102 7.16638 25.8227C6.9777 25.6351 6.8717 25.3808 6.8717 25.1156V22.1156C6.88285 20.88 7.23053 19.6705 7.8778 18.6156C8.07014 18.2618 8.29585 17.9269 8.55189 17.6156C8.5698 17.5845 8.59374 17.5573 8.62232 17.5356C8.8608 17.2536 9.12336 16.9926 9.40708 16.7556L9.52782 16.6456C9.80926 16.4186 10.1087 16.2146 10.4232 16.0356L10.5842 15.9456C10.9045 15.7643 11.2414 15.6136 11.5903 15.4956H11.6708L11.8519 15.5856L12.033 15.6756C12.2529 15.7796 12.4819 15.8633 12.7172 15.9256C12.9309 15.9902 13.1496 16.037 13.3711 16.0656H13.6629L13.9144 16.1156C14.0966 16.1138 14.2783 16.0971 14.4577 16.0656H14.6288C14.88 16.0186 15.1285 15.9585 15.3733 15.8856C15.6279 15.7905 15.8765 15.6803 16.1178 15.5556H16.1782L16.4498 15.6456L16.7718 15.7856C16.9328 15.8556 17.0837 15.9356 17.2346 16.0156C17.3351 16.0629 17.4325 16.1163 17.5264 16.1756L17.9992 16.4856L18.2206 16.6456C18.4412 16.8215 18.6527 17.0085 18.8544 17.2056C19.2935 17.6342 19.6694 18.1224 19.9712 18.6556C20.6004 19.7026 20.9406 20.8961 20.9572 22.1156V25.1156ZM25.9877 16.1156C25.9877 16.3808 25.8817 16.6351 25.693 16.8227C25.5043 17.0102 25.2484 17.1156 24.9816 17.1156H21.4401C21.3687 17.0081 21.2914 16.9046 21.2087 16.8056C21.1483 16.7256 21.098 16.6356 21.0276 16.5556C20.8066 16.274 20.5715 16.0037 20.3233 15.7456C20.0091 15.4414 19.6729 15.1607 19.3172 14.9056L18.945 14.6756C18.6834 14.5056 18.4218 14.3456 18.1501 14.1956C18.0898 14.1956 18.0294 14.1156 17.959 14.0856C18.1768 13.8386 18.3784 13.5781 18.5626 13.3056L18.7337 13.0156C18.8544 12.8156 18.9751 12.6056 19.0758 12.3956C19.1764 12.1856 19.1864 12.1656 19.2367 12.0556C19.3336 11.8441 19.4176 11.627 19.4883 11.4056C19.5312 11.2942 19.5681 11.1807 19.5989 11.0656C19.678 10.796 19.7418 10.5222 19.7901 10.2456V10.0956C20.0067 10.1645 20.2288 10.2147 20.4541 10.2456H20.5346C20.6553 10.2456 20.7861 10.2456 20.9169 10.2456H21.1483H21.2691C21.4866 10.2284 21.7021 10.1916 21.913 10.1356C22.1314 10.0714 22.3436 9.98773 22.5468 9.88556H22.6072C23.5707 10.2038 24.4122 10.8094 25.0171 11.62C25.622 12.4306 25.9609 13.4067 25.9877 14.4156V16.1156Z" fill="black"/>
</svg>
